<svg xmlns="http://www.w3.org/2000/svg" xmlns:xlink="http://www.w3.org/1999/xlink"><symbol id="a" fill="none" viewBox="0 0 10 8"><path stroke="#fff" stroke-linecap="round" stroke-linejoin="round" d="m1 3.5 2.95 3.5 5.05-6"/></symbol><use xlink:href="#a" width="10" height="8"/><view viewBox="0 0 10 8"/><symbol id="b" fill="none" viewBox="0 0 16 16"><path stroke="currentColor" d="m15.27 5.09-7.27 6.55-7.27-6.55"/></symbol><use xlink:href="#b" width="16" height="16" y="8"/><view viewBox="0 8 16 16"/><symbol id="c" fill="none" viewBox="0 0 20 20"><path stroke="currentColor" stroke-linecap="round" stroke-linejoin="round" d="m1 19 9-9m0 0 9-9m-9 9 9 9m-9-9-9-9"/></symbol><use xlink:href="#c" width="20" height="20" y="24"/><view viewBox="0 24 20 20"/><symbol id="d" fill="none" viewBox="0 0 22 22"><path fill="currentColor" d="M11 3.33c1.32 0 2.4 1.05 2.4 2.35s-1.08 2.35-2.4 2.35-2.4-1.06-2.4-2.35c0-1.3 1.08-2.35 2.4-2.35m0 8.02c3.2 0 5.8-2.54 5.8-5.67s-2.6-5.68-5.8-5.68a5.74 5.74 0 0 0-5.79 5.68c0 3.13 2.6 5.68 5.79 5.68m2.34 4.63a11.04 11.04 0 0 0 3.37-1.37 1.64 1.64 0 0 0 .53-2.3 1.72 1.72 0 0 0-2.34-.52 7.49 7.49 0 0 1-7.8 0 1.71 1.71 0 0 0-2.34.53 1.64 1.64 0 0 0 .53 2.29 11.04 11.04 0 0 0 3.37 1.37l-3.24 3.17a1.64 1.64 0 0 0 0 2.35 1.73 1.73 0 0 0 2.4 0l3.18-3.12 3.18 3.12a1.72 1.72 0 0 0 2.4 0 1.64 1.64 0 0 0 0-2.35z"/></symbol><use xlink:href="#d" width="22" height="22" y="44"/><view viewBox="0 44 22 22"/><symbol id="e" fill="none" viewBox="0 0 22 22"><path fill="currentColor" d="M12.95.5a2.1 2.1 0 0 0-1.63.83c-.39.5-.6 1.1-.76 1.73a14.94 14.94 0 0 0-.34 3.17c-1.8.12-3.43.68-4.79 1.55a2.8 2.8 0 0 0-1.85-.75 2.4 2.4 0 0 0-1.92 1 3.8 3.8 0 0 0 .27 4.64 6.6 6.6 0 0 0-.12 1.18c0 4.23 4.11 7.65 9.19 7.65 5.08 0 9.2-3.43 9.2-7.65 0-.4-.06-.8-.13-1.18a3.8 3.8 0 0 0 .27-4.63 2.4 2.4 0 0 0-1.92-1.01c-.64 0-1.3.26-1.85.75a10.17 10.17 0 0 0-4.77-1.56c.03-.93.1-1.9.27-2.64.11-.46.25-.8.39-.98.14-.18.25-.26.49-.26.52 0 .58.18.9.6.15.22.34.5.63.75.29.27.72.5 1.19.5v-1.85c-.13 0-.16 0-.24-.09-.1-.08-.21-.27-.4-.51-.35-.5-1.05-1.24-2.08-1.24m5.06.17c-1.22 0-2.2 1.16-2.2 2.6 0 1.42.98 2.58 2.2 2.58 1.2 0 2.18-1.16 2.18-2.59s-.98-2.59-2.19-2.59m0 .92c.78 0 1.41.75 1.41 1.67 0 .92-.63 1.67-1.4 1.67-.78 0-1.42-.75-1.42-1.67 0-.92.64-1.67 1.41-1.67m-7 6.07c4.3 0 7.95 2.84 7.95 6.19 0 3.35-3.64 6.18-7.95 6.18-4.3 0-7.95-2.83-7.95-6.18 0-3.35 3.64-6.19 7.95-6.19m-7.4.84c.22 0 .45.06.66.17-.78.7-1.4 1.5-1.82 2.42-.3-.72-.21-1.6.15-2.07a1.24 1.24 0 0 1 1.02-.52m14.78 0c.4 0 .76.17 1.02.51.36.48.44 1.37.15 2.08a7.48 7.48 0 0 0-1.82-2.42 1.49 1.49 0 0 1 .65-.17m-10.5 2.3c-.78 0-1.41.75-1.41 1.67 0 .92.63 1.67 1.4 1.67.79 0 1.42-.75 1.42-1.67 0-.92-.63-1.67-1.41-1.67m6.22 0c-.78 0-1.4.75-1.4 1.67 0 .92.62 1.67 1.4 1.67.78 0 1.41-.75 1.41-1.67 0-.92-.63-1.67-1.4-1.67m-6.99 5.67c.5 1.2 2.03 2.38 3.87 2.38s3.4-1.17 3.89-2.38a6.58 6.58 0 0 1-3.89 1.15 6.5 6.5 0 0 1-3.87-1.15"/></symbol><use xlink:href="#e" width="22" height="22" y="66"/><view viewBox="0 66 22 22"/><symbol id="f" fill="none" viewBox="0 0 16 9"><path fill="currentColor" d="M15.86 8.03c-.05-.07-.31-.64-1.6-1.82-1.33-1.22-1.15-1.02.46-3.14.98-1.3 1.38-2.08 1.25-2.42-.11-.32-.84-.24-.84-.24l-2.4.02s-.18-.03-.3.05c-.14.08-.22.26-.22.26s-.38 1-.9 1.85c-1.06 1.79-1.5 1.88-1.67 1.77-.4-.26-.3-1.04-.3-1.6 0-1.74.27-2.46-.52-2.65-.26-.06-.46-.1-1.12-.1-.86-.02-1.59 0-2 .2-.28.13-.49.42-.36.44.16.02.52.1.71.35.25.33.24 1.07.24 1.07s.14 2.05-.33 2.3c-.32.18-.77-.18-1.72-1.8-.5-.84-.87-1.76-.87-1.76s-.07-.17-.2-.27c-.15-.1-.36-.14-.36-.14l-2.29.01s-.34.01-.47.16c-.11.13 0 .4 0 .4s1.78 4.13 3.81 6.21c1.86 1.9 3.97 1.78 3.97 1.78h.96s.28-.03.43-.19c.14-.14.13-.41.13-.41s-.02-1.26.58-1.45c.59-.19 1.34 1.22 2.14 1.76.6.41 1.06.32 1.06.32l2.14-.03s1.12-.07.59-.93"/></symbol><use xlink:href="#f" width="16" height="9" y="88"/><view viewBox="0 88 16 9"/></svg>